# xmcd
#
# Track frame offsets:
#	150
#	13435
#	25677
#	38922
#	59560
#	78265
#	92650
#	104960
#	119615
#	135242
#
# Disc length: 2147 seconds
#
# Revision: 3
# Processed by: cddbd v1.5.1PL0 Copyright (c) Steve Scherf et al.
# Submitted via: MusicWizard 7.0.2
#
DISCID=8608610a
DTITLE=Hank Williams Jr. - Five-O
DYEAR=1985
DGENRE=Countryrock
TTITLE0=I'm For Love
TTITLE1=I Really Like Girls
TTITLE2=The Nashville Scene
TTITLE3=Ain't Misbehavin'
TTITLE4=Something To Believe In
TTITLE5=Lawyers, Guns And Money
TTITLE6=This Ain't Dallas
TTITLE7=I've Been Around
TTITLE8=New Orleans
TTITLE9=Outlaw's Reward
EXTD=(c)1985 Warner Bros - CURB
EXTT0=
EXTT1=
EXTT2=
EXTT3=
EXTT4=
EXTT5=
EXTT6=
EXTT7=
EXTT8=
EXTT9=
PLAYORDER=
